<svg xmlns="http://www.w3.org/2000/svg" style="display:none">

  <!-- ═══════════════════════════════════════════════════════════════
       PANTHEON v3 — Icon Sprite
       All symbols use currentColor. Status icons (i-ok/i-warn/i-err)
       lock their colors per spec. Reference: <use href="pantheon.svg#i-NAME"/>
       ═══════════════════════════════════════════════════════════════ -->

  <!-- 01 · ARCHITECTURE ─────────────────────────────────────────── -->

  <symbol id="i-ped" viewBox="0 0 24 24">
    <polygon points="3,11 12,3 21,11" fill="none" stroke="currentColor" stroke-width="1.5"/>
    <line x1="2" y1="11" x2="22" y2="11" stroke="currentColor" stroke-width="1.5"/>
    <line x1="5" y1="12" x2="5" y2="21" stroke="currentColor" stroke-width="1.5"/>
    <line x1="10" y1="12" x2="10" y2="21" stroke="currentColor" stroke-width="1.5"/>
    <line x1="14" y1="12" x2="14" y2="21" stroke="currentColor" stroke-width="1.5"/>
    <line x1="19" y1="12" x2="19" y2="21" stroke="currentColor" stroke-width="1.5"/>
    <line x1="3" y1="21" x2="21" y2="21" stroke="currentColor" stroke-width="1.5"/>
  </symbol>

  <symbol id="i-oculus" viewBox="0 0 24 24">
    <circle cx="12" cy="12" r="9" fill="none" stroke="currentColor" stroke-width="1.5"/>
    <circle cx="12" cy="12" r="6" fill="none" stroke="currentColor" stroke-width="1.25"/>
    <circle cx="12" cy="12" r="2.5" fill="currentColor"/>
    <line x1="12" y1="3" x2="12" y2="6" stroke="currentColor" stroke-width="1.25"/>
    <line x1="12" y1="18" x2="12" y2="21" stroke="currentColor" stroke-width="1.25"/>
    <line x1="3" y1="12" x2="6" y2="12" stroke="currentColor" stroke-width="1.25"/>
    <line x1="18" y1="12" x2="21" y2="12" stroke="currentColor" stroke-width="1.25"/>
  </symbol>

  <symbol id="i-column" viewBox="0 0 24 24">
    <rect x="8" y="3" width="8" height="2" fill="none" stroke="currentColor" stroke-width="1.5"/>
    <rect x="8" y="19" width="8" height="2" fill="none" stroke="currentColor" stroke-width="1.5"/>
    <line x1="9.5" y1="5" x2="9.5" y2="19" stroke="currentColor" stroke-width="1.5"/>
    <line x1="12" y1="5" x2="12" y2="19" stroke="currentColor" stroke-width="1.5"/>
    <line x1="14.5" y1="5" x2="14.5" y2="19" stroke="currentColor" stroke-width="1.5"/>
  </symbol>

  <symbol id="i-dome" viewBox="0 0 24 24">
    <path d="M 3 18 A 9 9 0 0 1 21 18" fill="none" stroke="currentColor" stroke-width="1.5"/>
    <line x1="2" y1="18" x2="22" y2="18" stroke="currentColor" stroke-width="1.5"/>
    <path d="M 6 18 A 6 6 0 0 1 18 18" fill="none" stroke="currentColor" stroke-width="1.25"/>
    <path d="M 9 18 A 3 3 0 0 1 15 18" fill="none" stroke="currentColor" stroke-width="1.25"/>
    <line x1="12" y1="9" x2="12" y2="18" stroke="currentColor" stroke-width="1.25"/>
    <line x1="6" y1="14.5" x2="18" y2="14.5" stroke="currentColor" stroke-width="1.25"/>
  </symbol>

  <symbol id="i-arch" viewBox="0 0 24 24">
    <path d="M 4 20 L 4 10 A 8 8 0 0 1 20 10 L 20 20" fill="none" stroke="currentColor" stroke-width="1.5"/>
    <line x1="3" y1="20" x2="21" y2="20" stroke="currentColor" stroke-width="1.5"/>
    <line x1="4" y1="10" x2="20" y2="10" stroke="currentColor" stroke-width="1.25"/>
  </symbol>

  <!-- 02 · WEAPONS ──────────────────────────────────────────────── -->

  <symbol id="i-gaunt" viewBox="0 0 24 24">
    <path d="M 7 4 L 7 13 L 12 18 L 17 13 L 17 4" fill="none" stroke="currentColor" stroke-width="1.5"/>
    <line x1="10" y1="7" x2="10" y2="11" stroke="currentColor" stroke-width="1.5"/>
    <line x1="14" y1="7" x2="14" y2="11" stroke="currentColor" stroke-width="1.5"/>
    <line x1="12" y1="18" x2="12" y2="21" stroke="currentColor" stroke-width="1.5"/>
  </symbol>

  <symbol id="i-mg" viewBox="0 0 24 24">
    <rect x="3" y="10" width="14" height="5" fill="none" stroke="currentColor" stroke-width="1.5"/>
    <line x1="17" y1="12.5" x2="21" y2="12.5" stroke="currentColor" stroke-width="1.5"/>
    <rect x="6" y="15" width="3" height="4" fill="none" stroke="currentColor" stroke-width="1.5"/>
    <line x1="5" y1="12" x2="15" y2="12" stroke="currentColor" stroke-width="1.25"/>
    <line x1="5" y1="13.5" x2="15" y2="13.5" stroke="currentColor" stroke-width="1.25"/>
  </symbol>

  <symbol id="i-sg" viewBox="0 0 24 24">
    <rect x="3" y="9" width="16" height="5" fill="none" stroke="currentColor" stroke-width="1.5"/>
    <circle cx="19" cy="11.5" r="1" fill="currentColor"/>
    <rect x="5" y="14" width="4" height="5" fill="none" stroke="currentColor" stroke-width="1.5"/>
    <line x1="3" y1="11.5" x2="17" y2="11.5" stroke="currentColor" stroke-width="1.25"/>
  </symbol>

  <symbol id="i-rl" viewBox="0 0 24 24">
    <path d="M 3 12 L 15 12 L 19 9 L 21 12 L 19 15 L 15 12" fill="none" stroke="currentColor" stroke-width="1.5"/>
    <circle cx="17" cy="12" r="1" fill="currentColor"/>
    <path d="M 3 10 L 2 12 L 3 14" fill="none" stroke="currentColor" stroke-width="1.25"/>
  </symbol>

  <symbol id="i-lg" viewBox="0 0 24 24">
    <path d="M 13 3 L 6 13 L 11 13 L 9 21 L 18 9 L 13 9 Z" fill="currentColor"/>
  </symbol>

  <symbol id="i-rg" viewBox="0 0 24 24">
    <rect x="3" y="10" width="17" height="4" fill="none" stroke="currentColor" stroke-width="1.5"/>
    <circle cx="20" cy="12" r="2" fill="none" stroke="currentColor" stroke-width="1.5"/>
    <line x1="7" y1="14" x2="7" y2="19" stroke="currentColor" stroke-width="1.5"/>
    <line x1="3" y1="12" x2="18" y2="12" stroke="currentColor" stroke-width="1.25"/>
    <line x1="22" y1="12" x2="23" y2="12" stroke="currentColor" stroke-width="1.5"/>
  </symbol>

  <symbol id="i-pg" viewBox="0 0 24 24">
    <circle cx="12" cy="12" r="5" fill="none" stroke="currentColor" stroke-width="1.5"/>
    <circle cx="12" cy="12" r="8" fill="none" stroke="currentColor" stroke-width="1.25"/>
    <circle cx="12" cy="12" r="1.5" fill="currentColor"/>
    <line x1="7" y1="12" x2="4" y2="12" stroke="currentColor" stroke-width="1.5"/>
    <line x1="17" y1="12" x2="20" y2="12" stroke="currentColor" stroke-width="1.5"/>
  </symbol>

  <!-- 03 · EVENTS ───────────────────────────────────────────────── -->

  <symbol id="i-frag" viewBox="0 0 24 24">
    <circle cx="12" cy="12" r="8" fill="none" stroke="currentColor" stroke-width="1.5"/>
    <line x1="12" y1="4" x2="12" y2="20" stroke="currentColor" stroke-width="1.5"/>
    <line x1="4" y1="12" x2="20" y2="12" stroke="currentColor" stroke-width="1.5"/>
    <circle cx="12" cy="12" r="1.5" fill="currentColor"/>
  </symbol>

  <symbol id="i-tele" viewBox="0 0 24 24">
    <circle cx="12" cy="12" r="8" fill="none" stroke="currentColor" stroke-width="1.5"/>
    <path d="M 6 8 L 12 12 L 18 8" fill="none" stroke="currentColor" stroke-width="1.5"/>
    <path d="M 6 16 L 12 12 L 18 16" fill="none" stroke="currentColor" stroke-width="1.5"/>
    <circle cx="12" cy="12" r="1" fill="currentColor"/>
  </symbol>

  <symbol id="i-star" viewBox="0 0 24 24">
    <polygon points="12,3 14,9 20,9 15,13 17,20 12,16 7,20 9,13 4,9 10,9" fill="none" stroke="currentColor" stroke-width="1.5"/>
  </symbol>

  <symbol id="i-check" viewBox="0 0 24 24">
    <path d="M 6 13 L 10 17 L 18 7" fill="none" stroke="currentColor" stroke-width="2"/>
    <line x1="4" y1="20" x2="20" y2="20" stroke="currentColor" stroke-width="1.5"/>
  </symbol>

  <symbol id="i-hum" viewBox="0 0 24 24">
    <circle cx="12" cy="9" r="4" fill="none" stroke="currentColor" stroke-width="1.5"/>
    <path d="M 5 21 L 5 17 A 7 7 0 0 1 19 17 L 19 21" fill="none" stroke="currentColor" stroke-width="1.5"/>
    <line x1="9" y1="9" x2="10" y2="9" stroke="currentColor" stroke-width="1.5"/>
    <line x1="14" y1="9" x2="15" y2="9" stroke="currentColor" stroke-width="1.5"/>
    <path d="M 10 11 Q 12 9 14 11" fill="none" stroke="currentColor" stroke-width="1.5"/>
  </symbol>

  <symbol id="i-deny" viewBox="0 0 24 24">
    <circle cx="12" cy="12" r="9" fill="none" stroke="currentColor" stroke-width="1.5"/>
    <line x1="5.5" y1="5.5" x2="18.5" y2="18.5" stroke="currentColor" stroke-width="1.5"/>
  </symbol>

  <!-- 04 · TIERS & FLOW ─────────────────────────────────────────── -->

  <symbol id="i-t1" viewBox="0 0 24 24">
    <path d="M 12 4 L 7 10 L 7 20 L 17 20 L 17 10 Z" fill="none" stroke="currentColor" stroke-width="1.5"/>
  </symbol>

  <symbol id="i-t2" viewBox="0 0 24 24">
    <polygon points="5,6 12,11 19,6 19,18 12,13 5,18" fill="none" stroke="currentColor" stroke-width="1.5"/>
  </symbol>

  <symbol id="i-t3" viewBox="0 0 24 24">
    <rect x="4" y="8" width="16" height="3" fill="none" stroke="currentColor" stroke-width="1.5"/>
    <rect x="4" y="13" width="16" height="3" fill="none" stroke="currentColor" stroke-width="1.5"/>
  </symbol>

  <symbol id="i-seam" viewBox="0 0 24 24">
    <line x1="12" y1="3" x2="12" y2="21" stroke="currentColor" stroke-width="2.5"/>
    <line x1="8" y1="5" x2="8" y2="19" stroke="currentColor" stroke-width="1.25"/>
    <line x1="16" y1="5" x2="16" y2="19" stroke="currentColor" stroke-width="1.25"/>
    <polygon points="9,3 15,3 12,6" fill="currentColor"/>
    <polygon points="9,21 15,21 12,18" fill="currentColor"/>
  </symbol>

  <symbol id="i-downbeat" viewBox="0 0 24 24">
    <line x1="3" y1="18" x2="21" y2="18" stroke="currentColor" stroke-width="1.25"/>
    <rect x="5" y="12" width="2" height="6" fill="currentColor"/>
    <rect x="11" y="8" width="2" height="10" fill="currentColor"/>
    <rect x="17" y="14" width="2" height="4" fill="currentColor"/>
  </symbol>

  <!-- 05 · MEDIA CONTROLS ──────────────────────────────────────── -->

  <symbol id="i-play" viewBox="0 0 24 24">
    <polygon points="7,4 7,20 20,12" fill="currentColor"/>
  </symbol>

  <symbol id="i-pause" viewBox="0 0 24 24">
    <rect x="6" y="4" width="4" height="16" fill="currentColor"/>
    <rect x="14" y="4" width="4" height="16" fill="currentColor"/>
  </symbol>

  <symbol id="i-stop" viewBox="0 0 24 24">
    <rect x="5" y="5" width="14" height="14" fill="currentColor"/>
  </symbol>

  <symbol id="i-next" viewBox="0 0 24 24">
    <polygon points="4,4 4,20 14,12" fill="currentColor"/>
    <rect x="16" y="4" width="3" height="16" fill="currentColor"/>
  </symbol>

  <symbol id="i-prev" viewBox="0 0 24 24">
    <rect x="5" y="4" width="3" height="16" fill="currentColor"/>
    <polygon points="20,4 20,20 10,12" fill="currentColor"/>
  </symbol>

  <symbol id="i-scrub" viewBox="0 0 24 24">
    <line x1="3" y1="12" x2="21" y2="12" stroke="currentColor" stroke-width="2"/>
    <circle cx="12" cy="12" r="3" fill="currentColor"/>
    <line x1="6" y1="9" x2="6" y2="15" stroke="currentColor" stroke-width="1.25"/>
    <line x1="18" y1="9" x2="18" y2="15" stroke="currentColor" stroke-width="1.25"/>
  </symbol>

  <!-- 06 · EDITOR TOOLS ────────────────────────────────────────── -->

  <symbol id="i-cut" viewBox="0 0 24 24">
    <circle cx="7" cy="7" r="3" fill="none" stroke="currentColor" stroke-width="1.5"/>
    <circle cx="7" cy="17" r="3" fill="none" stroke="currentColor" stroke-width="1.5"/>
    <line x1="9.5" y1="8.5" x2="20" y2="18" stroke="currentColor" stroke-width="1.5"/>
    <line x1="9.5" y1="15.5" x2="20" y2="6" stroke="currentColor" stroke-width="1.5"/>
  </symbol>

  <symbol id="i-split" viewBox="0 0 24 24">
    <rect x="3" y="9" width="7" height="6" fill="none" stroke="currentColor" stroke-width="1.5"/>
    <rect x="14" y="9" width="7" height="6" fill="none" stroke="currentColor" stroke-width="1.5"/>
    <line x1="12" y1="4" x2="12" y2="20" stroke="currentColor" stroke-width="1.5" stroke-dasharray="2 2"/>
  </symbol>

  <symbol id="i-fx" viewBox="0 0 24 24">
    <circle cx="12" cy="12" r="7" fill="none" stroke="currentColor" stroke-width="1.5"/>
    <path d="M 12 5 L 12 12 L 17 15" fill="none" stroke="currentColor" stroke-width="1.25"/>
    <circle cx="12" cy="12" r="1" fill="currentColor"/>
    <path d="M 12 5 L 14 3 L 15 5" fill="none" stroke="currentColor" stroke-width="1.5"/>
  </symbol>

  <symbol id="i-slow" viewBox="0 0 24 24">
    <circle cx="12" cy="12" r="8" fill="none" stroke="currentColor" stroke-width="1.5"/>
    <path d="M 12 6 L 12 12 L 16 14" fill="none" stroke="currentColor" stroke-width="1.5"/>
    <path d="M 12 4 L 12 6" stroke="currentColor" stroke-width="1.25"/>
    <path d="M 4 12 L 6 12" stroke="currentColor" stroke-width="1.25"/>
    <path d="M 20 12 L 18 12" stroke="currentColor" stroke-width="1.25"/>
  </symbol>

  <symbol id="i-zoom" viewBox="0 0 24 24">
    <circle cx="10" cy="10" r="6" fill="none" stroke="currentColor" stroke-width="1.5"/>
    <line x1="7" y1="10" x2="13" y2="10" stroke="currentColor" stroke-width="1.5"/>
    <line x1="10" y1="7" x2="10" y2="13" stroke="currentColor" stroke-width="1.5"/>
    <line x1="14.5" y1="14.5" x2="20" y2="20" stroke="currentColor" stroke-width="2"/>
  </symbol>

  <symbol id="i-zout" viewBox="0 0 24 24">
    <circle cx="10" cy="10" r="6" fill="none" stroke="currentColor" stroke-width="1.5"/>
    <line x1="7" y1="10" x2="13" y2="10" stroke="currentColor" stroke-width="1.5"/>
    <line x1="14.5" y1="14.5" x2="20" y2="20" stroke="currentColor" stroke-width="2"/>
  </symbol>

  <!-- 07 · STATUS (locked colors per spec) ─────────────────────── -->

  <symbol id="i-ok" viewBox="0 0 24 24">
    <circle cx="12" cy="12" r="9" fill="none" stroke="#1e8449" stroke-width="1.5"/>
    <path d="M 7 12 L 11 16 L 17 9" fill="none" stroke="#1e8449" stroke-width="2"/>
  </symbol>

  <symbol id="i-warn" viewBox="0 0 24 24">
    <polygon points="12,3 22,20 2,20" fill="none" stroke="#e68a00" stroke-width="1.5"/>
    <line x1="12" y1="10" x2="12" y2="15" stroke="#e68a00" stroke-width="2"/>
    <circle cx="12" cy="17.5" r="1" fill="#e68a00"/>
  </symbol>

  <symbol id="i-err" viewBox="0 0 24 24">
    <circle cx="12" cy="12" r="9" fill="none" stroke="#c41515" stroke-width="1.5"/>
    <line x1="8" y1="8" x2="16" y2="16" stroke="#c41515" stroke-width="2"/>
    <line x1="16" y1="8" x2="8" y2="16" stroke="#c41515" stroke-width="2"/>
  </symbol>

  <!-- 08 · SYSTEM ───────────────────────────────────────────────── -->

  <symbol id="i-set" viewBox="0 0 24 24">
    <circle cx="12" cy="12" r="3" fill="none" stroke="currentColor" stroke-width="1.5"/>
    <path d="M 12 3 L 12 6 M 12 18 L 12 21 M 3 12 L 6 12 M 18 12 L 21 12 M 5.5 5.5 L 7.5 7.5 M 16.5 16.5 L 18.5 18.5 M 18.5 5.5 L 16.5 7.5 M 7.5 16.5 L 5.5 18.5" fill="none" stroke="currentColor" stroke-width="1.5"/>
  </symbol>

  <symbol id="i-crt" viewBox="0 0 24 24">
    <path d="M 2 12 Q 12 4 22 12 Q 12 20 2 12 Z" fill="none" stroke="currentColor" stroke-width="1.5"/>
    <circle cx="12" cy="12" r="3" fill="none" stroke="currentColor" stroke-width="1.5"/>
    <circle cx="12" cy="12" r="1.25" fill="currentColor"/>
    <line x1="4" y1="8" x2="20" y2="8" stroke="currentColor" stroke-width="1.25" stroke-dasharray="1 2"/>
    <line x1="4" y1="16" x2="20" y2="16" stroke="currentColor" stroke-width="1.25" stroke-dasharray="1 2"/>
  </symbol>

  <!-- 09 · EXTRAS (from Editor v2) ─────────────────────────────── -->

  <symbol id="i-film" viewBox="0 0 24 24">
    <rect x="4" y="5" width="16" height="14" fill="none" stroke="currentColor" stroke-width="1.5"/>
    <line x1="4" y1="9" x2="20" y2="9" stroke="currentColor" stroke-width="1.5"/>
    <line x1="4" y1="15" x2="20" y2="15" stroke="currentColor" stroke-width="1.5"/>
    <line x1="9" y1="5" x2="9" y2="19" stroke="currentColor" stroke-width="1.5"/>
    <line x1="15" y1="5" x2="15" y2="19" stroke="currentColor" stroke-width="1.5"/>
  </symbol>

  <symbol id="i-speak" viewBox="0 0 24 24">
    <polygon points="4,9 4,15 9,15 14,19 14,5 9,9" fill="currentColor"/>
    <path d="M 17 8 Q 20 12 17 16" fill="none" stroke="currentColor" stroke-width="1.5"/>
  </symbol>

  <symbol id="i-chev-l" viewBox="0 0 24 24">
    <polyline points="15,5 8,12 15,19" fill="none" stroke="currentColor" stroke-width="2"/>
  </symbol>

  <symbol id="i-chev-r" viewBox="0 0 24 24">
    <polyline points="9,5 16,12 9,19" fill="none" stroke="currentColor" stroke-width="2"/>
  </symbol>

  <symbol id="i-plus" viewBox="0 0 24 24">
    <line x1="12" y1="5" x2="12" y2="19" stroke="currentColor" stroke-width="2"/>
    <line x1="5" y1="12" x2="19" y2="12" stroke="currentColor" stroke-width="2"/>
  </symbol>

  <symbol id="i-min" viewBox="0 0 24 24">
    <line x1="5" y1="12" x2="19" y2="12" stroke="currentColor" stroke-width="2"/>
  </symbol>

  <symbol id="i-pin" viewBox="0 0 24 24">
    <circle cx="12" cy="9" r="4" fill="none" stroke="currentColor" stroke-width="1.5"/>
    <line x1="12" y1="13" x2="12" y2="21" stroke="currentColor" stroke-width="1.5"/>
  </symbol>

</svg>
